<?xml version="1.0" encoding="UTF-8"?>
<svg xmlns="http://www.w3.org/2000/svg" viewBox="0 0 64 64" width="64" height="64" role="img" aria-label="audio">
  <defs>
    <linearGradient id="base" x1="0" y1="0" x2="0" y2="1">
      <stop offset="0" stop-color="#7FB2E0"/>
      <stop offset="1" stop-color="#234E7A"/>
    </linearGradient>
    <linearGradient id="gloss" x1="0" y1="0" x2="0" y2="1">
      <stop offset="0" stop-color="#FFFFFF" stop-opacity="0.85"/>
      <stop offset="1" stop-color="#FFFFFF" stop-opacity="0"/>
    </linearGradient>
    <radialGradient id="redGlow" cx="0.5" cy="0.5" r="0.5">
      <stop offset="0" stop-color="#C0102A" stop-opacity="0.7"/>
      <stop offset="1" stop-color="#C0102A" stop-opacity="0"/>
    </radialGradient>
  </defs>
  <rect x="2" y="2" width="60" height="60" rx="14" fill="url(#base)"/>
  <rect x="6" y="5" width="52" height="22" rx="10" fill="url(#gloss)"/>
  <ellipse cx="32" cy="34" rx="18" ry="16" fill="url(#redGlow)"/>
  <g fill="#FFFFFF">
    <path d="M24 26 h6 l8 -6 v28 l-8 -6 h-6 a3 3 0 0 1 -3 -3 V29 a3 3 0 0 1 3 -3 Z"/>
  </g>
  <g fill="none" stroke="#E63950" stroke-width="3" stroke-linecap="round" stroke-linejoin="round">
    <path d="M44 24 a8 8 0 0 1 0 16"/>
    <path d="M46 20 a13 13 0 0 1 0 24"/>
  </g>
<style>/* DOB red-gloss tint target: #C0102A */</style></svg>
