<?xml version="1.0" encoding="UTF-8"?>
<svg xmlns="http://www.w3.org/2000/svg" viewBox="0 0 64 64" width="64" height="64" role="img" aria-label="network">
  <defs>
    <linearGradient id="base" x1="0" y1="0" x2="0" y2="1">
      <stop offset="0" stop-color="#7FB2E0"/>
      <stop offset="1" stop-color="#234E7A"/>
    </linearGradient>
    <linearGradient id="gloss" x1="0" y1="0" x2="0" y2="1">
      <stop offset="0" stop-color="#FFFFFF" stop-opacity="0.85"/>
      <stop offset="1" stop-color="#FFFFFF" stop-opacity="0"/>
    </linearGradient>
    <radialGradient id="redGlow" cx="0.5" cy="0.5" r="0.5">
      <stop offset="0" stop-color="#C0102A" stop-opacity="0.7"/>
      <stop offset="1" stop-color="#C0102A" stop-opacity="0"/>
    </radialGradient>
  </defs>
  <rect x="2" y="2" width="60" height="60" rx="14" fill="url(#base)"/>
  <rect x="6" y="5" width="52" height="22" rx="10" fill="url(#gloss)"/>
  <ellipse cx="32" cy="34" rx="20" ry="14" fill="url(#redGlow)"/>
  <g fill="none" stroke="#FFFFFF" stroke-width="3" stroke-linecap="round">
    <ellipse cx="32" cy="34" rx="14" ry="9"/>
    <line x1="32" y1="25" x2="32" y2="43"/>
    <line x1="20" y1="30" x2="44" y2="38"/>
    <line x1="44" y1="30" x2="20" y2="38"/>
  </g>
  <g fill="#FFFFFF"><circle cx="32" cy="34" r="2.6"/><circle cx="32" cy="52" r="3"/><circle cx="14" cy="46" r="3"/><circle cx="50" cy="46" r="3"/></g>
  <g stroke="#E63950" stroke-width="2" fill="none"><line x1="32" y1="36" x2="32" y2="49"/><line x1="32" y1="36" x2="15" y2="44"/><line x1="32" y1="36" x2="49" y2="44"/></g>
</svg>
